<svg width="23.568" height="23.568" xmlns="http://www.w3.org/2000/svg">

 <g>
  <title>Layer 1</title>
  <path stroke="#00bf00" fill="#00bf00" d="m23.568,18.613a0.855,0.855 0 0 0 -0.05,-0.352c-0.117,-0.351 -0.937,-0.72 -1.272,-0.887c-0.954,-0.536 -1.925,-1.054 -2.862,-1.607c-0.435,-0.268 -0.971,-0.77 -1.49,-0.77c-1.021,0 -2.511,3.03 -3.415,3.03a3.6,3.6 0 0 1 -1.44,-0.653a16.656,16.656 0 0 1 -6.846,-6.846a3.6,3.6 0 0 1 -0.653,-1.44c0,-0.9 3.03,-2.394 3.03,-3.415c0,-0.519 -0.5,-1.055 -0.77,-1.49c-0.552,-0.937 -1.071,-1.908 -1.607,-2.862c-0.167,-0.335 -0.536,-1.155 -0.887,-1.272a0.855,0.855 0 0 0 -0.352,-0.05a7.453,7.453 0 0 0 -2.327,0.519a4.411,4.411 0 0 0 -1.774,2.042a6.4,6.4 0 0 0 -0.853,3.114a12.9,12.9 0 0 0 1.155,4.385a15.639,15.639 0 0 0 1.389,2.929a28.258,28.258 0 0 0 8.035,8.035a15.626,15.626 0 0 0 2.929,1.389a12.888,12.888 0 0 0 4.386,1.156a6.4,6.4 0 0 0 3.113,-0.854a4.412,4.412 0 0 0 2.042,-1.774a7.448,7.448 0 0 0 0.519,-2.327z" id="_"/>
 </g>
</svg>